<svg width="18" height="18" viewBox="0 0 18 18" fill="none" xmlns="http://www.w3.org/2000/svg">
<g clip-path="url(#clip0_456_68)">
<path d="M17 8.83C16.7348 8.83 16.4804 8.93536 16.2929 9.12289C16.1054 9.31043 16 9.56478 16 9.83V15.4C16 15.5591 15.9368 15.7117 15.8243 15.8243C15.7117 15.9368 15.5591 16 15.4 16H2.6C2.44087 16 2.28826 15.9368 2.17574 15.8243C2.06321 15.7117 2 15.5591 2 15.4V2.6C2 2.44087 2.06321 2.28826 2.17574 2.17574C2.28826 2.06321 2.44087 2 2.6 2H12.17C12.4352 2 12.6896 1.89464 12.8771 1.70711C13.0646 1.51957 13.17 1.26522 13.17 1C13.17 0.734784 13.0646 0.48043 12.8771 0.292893C12.6896 0.105357 12.4352 0 12.17 0H2.6C1.91125 0.00263388 1.25146 0.277407 0.764432 0.764432C0.277407 1.25146 0.00263388 1.91125 0 2.6V15.4C0.00263388 16.0888 0.277407 16.7485 0.764432 17.2356C1.25146 17.7226 1.91125 17.9974 2.6 18H15.4C16.0888 17.9974 16.7485 17.7226 17.2356 17.2356C17.7226 16.7485 17.9974 16.0888 18 15.4V9.83C18 9.56478 17.8946 9.31043 17.7071 9.12289C17.5196 8.93536 17.2652 8.83 17 8.83Z" fill="#003F65"/>
<path d="M7.71996 8.00006C7.5323 7.8313 7.28778 7.73973 7.03543 7.74373C6.78308 7.74773 6.54158 7.84699 6.35936 8.02162C6.17715 8.19624 6.0677 8.4333 6.05297 8.68525C6.03825 8.9372 6.11933 9.1854 6.27996 9.38006L8.49996 11.7101C8.5929 11.8076 8.70459 11.8853 8.82832 11.9386C8.95204 11.9918 9.08525 12.0195 9.21996 12.0201C9.35395 12.0208 9.48673 11.9947 9.61041 11.9432C9.7341 11.8916 9.84616 11.8158 9.93996 11.7201L16.72 4.72006C16.8119 4.62551 16.8843 4.51378 16.933 4.39124C16.9818 4.26871 17.0059 4.13778 17.004 4.00592C17.0022 3.87406 16.9744 3.74386 16.9222 3.62275C16.87 3.50163 16.7945 3.39199 16.7 3.30006C16.6054 3.20814 16.4937 3.13573 16.3711 3.08699C16.2486 3.03824 16.1177 3.01411 15.9858 3.01597C15.854 3.01783 15.7238 3.04564 15.6026 3.09781C15.4815 3.14999 15.3719 3.22551 15.28 3.32006L9.22996 9.58006L7.71996 8.00006Z" fill="#003F65"/>
</g>
<defs>
<clipPath id="clip0_456_68">
<rect width="18" height="18" fill="white"/>
</clipPath>
</defs>
</svg>
