<svg width="20" height="20" viewBox="0 0 20 20" fill="none" xmlns="http://www.w3.org/2000/svg">
<path fill-rule="evenodd" clip-rule="evenodd" d="M0 2.22222C0 1.63285 0.234126 1.06762 0.650874 0.650874C1.06762 0.234126 1.63285 0 2.22222 0H17.7778C18.3671 0 18.9324 0.234126 19.3491 0.650874C19.7659 1.06762 20 1.63285 20 2.22222V17.7778C20 18.3671 19.7659 18.9324 19.3491 19.3491C18.9324 19.7659 18.3671 20 17.7778 20H2.22222C1.63285 20 1.06762 19.7659 0.650874 19.3491C0.234126 18.9324 0 18.3671 0 17.7778V2.22222ZM6.07111 6.07222C6.1743 5.96892 6.29685 5.88696 6.43173 5.83104C6.56662 5.77513 6.71121 5.74635 6.85722 5.74635C7.00324 5.74635 7.14783 5.77513 7.28271 5.83104C7.4176 5.88696 7.54014 5.96892 7.64333 6.07222L9.99889 8.42778L12.3567 6.07222C12.4598 5.96899 12.5823 5.88709 12.7171 5.83119C12.8519 5.77529 12.9964 5.74649 13.1424 5.74644C13.2883 5.74639 13.4329 5.77508 13.5677 5.83089C13.7026 5.88669 13.8251 5.96851 13.9283 6.07167C14.0316 6.17483 14.1135 6.29731 14.1694 6.43213C14.2253 6.56694 14.2541 6.71144 14.2541 6.85738C14.2542 7.00333 14.2255 7.14785 14.1697 7.28271C14.1139 7.41756 14.0321 7.5401 13.9289 7.64333L11.5711 10L13.9289 12.3567C14.1374 12.5652 14.2545 12.8479 14.2545 13.1428C14.2545 13.4376 14.1374 13.7204 13.9289 13.9289C13.7204 14.1374 13.4376 14.2545 13.1428 14.2545C12.8479 14.2545 12.5652 14.1374 12.3567 13.9289L10 11.5711L7.64333 13.9289C7.43484 14.1374 7.15207 14.2545 6.85722 14.2545C6.56237 14.2545 6.2796 14.1374 6.07111 13.9289C5.86262 13.7204 5.74549 13.4376 5.74549 13.1428C5.74549 12.8479 5.86262 12.5652 6.07111 12.3567L8.42889 10L6.07111 7.64333C5.86281 7.43497 5.74579 7.1524 5.74579 6.85778C5.74579 6.56315 5.86281 6.28059 6.07111 6.07222Z" fill="#5DB478"/>
</svg>
