<?xml version="1.0" encoding="UTF-8"?>
<!DOCTYPE svg PUBLIC "-//W3C//DTD SVG 1.1//EN" "http://www.w3.org/Graphics/SVG/1.1/DTD/svg11.dtd">
<!-- Creator: CorelDRAW 2021.5 -->
<svg xmlns="http://www.w3.org/2000/svg" xml:space="preserve" width="317.829mm" height="59.6397mm" version="1.1" style="shape-rendering:geometricPrecision; text-rendering:geometricPrecision; image-rendering:optimizeQuality; fill-rule:evenodd; clip-rule:evenodd"
viewBox="0 0 13447.47 2523.38"
 xmlns:xlink="http://www.w3.org/1999/xlink"
 xmlns:xodm="http://www.corel.com/coreldraw/odm/2003">
 <defs>
  <style type="text/css">
   <![CDATA[
    .fil1 {fill:url(#id0)}
    .fil0 {fill:url(#id1)}
    .fil2 {fill:url(#id2)}
    .fil3 {fill:url(#id3)}
   ]]>
  </style>
  <linearGradient id="id0" gradientUnits="userSpaceOnUse" x1="488.9" y1="2246.81" x2="3028.09" y2="164.92">
   <stop offset="0" style="stop-opacity:1; stop-color:#2C2C2C"/>
   <stop offset="1" style="stop-opacity:1; stop-color:black"/>
  </linearGradient>
  <linearGradient id="id1" gradientUnits="userSpaceOnUse" xlink:href="#id0" x1="11496.39" y1="1885.63" x2="11848.09" y2="-111.89">
  </linearGradient>
  <linearGradient id="id2" gradientUnits="userSpaceOnUse" x1="563.74" y1="1609.12" x2="4029.91" y2="-98.03">
   <stop offset="0" style="stop-opacity:1; stop-color:#106680"/>
   <stop offset="1" style="stop-opacity:1; stop-color:#FEFEFE"/>
  </linearGradient>
  <linearGradient id="id3" gradientUnits="userSpaceOnUse" xlink:href="#id2" x1="2025.58" y1="780.14" x2="2847.78" y2="467.52">
  </linearGradient>
 </defs>
 <g id="Слой_x0020_1">
  <metadata id="CorelCorpID_0Corel-Layer"/>
  <path class="fil0" d="M4573.23 825.26c0.54,-3.85 1.01,-8.05 1.42,-12.4 3.22,-34.43 0.56,-65.81 -8.01,-94.05 -8.47,-27.91 -22.75,-52.91 -42.88,-74.95l-0.13 -0.14c-20.05,-22.28 -43.72,-38.96 -71.01,-50.04 -27.53,-11.18 -59.03,-16.75 -94.53,-16.75l-901.08 0 -348.4 1300.04 351.58 0 254.44 -945.31 478.78 0 -255.46 945.31 354.21 0 273.56 -1015.18c1.55,-7.51 2.22,-10.45 2.86,-13.29l2.7 -11.91 -0.06 -0.07c0.88,-4.13 1.54,-7.86 2.01,-11.27zm1270.05 106.4l96.45 -354.73 -892.28 0c-40.49,0 -79.92,7.11 -118.3,21.32 -38.71,14.33 -76.67,35.97 -113.87,64.9 -36.73,28.67 -66.91,60.36 -90.51,95.02 -23.49,34.51 -40.5,71.99 -51.01,112.36l-191.75 719.86c-2,8.36 -3.4,16.57 -4.74,24.49l-0.12 0.63 0.07 0.07c-0.94,5.61 -1.6,9.86 -1.97,12.67 -0.49,3.74 -0.96,8.01 -1.4,12.78 -3.2,34.19 -0.63,65.41 7.72,93.59 8.28,27.96 22.34,53.23 42.14,75.75 19.5,22.18 42.72,38.77 69.6,49.8 27.34,11.21 58.7,16.8 94.05,16.8l901.14 0 96.53 -355.41 -831.8 0 157.7 -589.9 832.36 0zm546.44 945.31l350.99 -1300.04 -354.2 0 -348.4 1300.04 351.6 0zm1520.65 0l351.65 -1300.04 -362.63 0 -499.2 589.98 -182.48 -589.98 -367.19 0 -348.4 1300.04 351.58 0 169.37 -630.31 186.67 604.71 518.46 -612.32 -171.42 637.92 353.59 0zm1577.97 -1051.2c0.54,-3.86 1.01,-8.06 1.43,-12.57 3.22,-34.39 0.57,-65.72 -7.97,-93.97 -8.47,-28.03 -22.78,-53.18 -42.95,-75.44l-0.06 -0.07c-20.05,-22.28 -43.72,-38.96 -71.01,-50.04 -27.53,-11.18 -59.03,-16.75 -94.53,-16.75l-901.08 0 -348.4 1300.04 351.63 0 140.06 -516.18 538.76 0c40.16,0 79.36,-7.12 117.5,-21.35 38.35,-14.31 75.91,-35.92 112.58,-64.8 36.76,-29.42 66.99,-61.65 90.68,-96.63 23.47,-34.65 40.46,-72.07 50.97,-112.24l54.61 -202.43c1.28,-6.3 2.39,-11.23 3.48,-15.99l2.25 -10.13c0.88,-4.16 1.53,-7.92 2.03,-11.43zm-837.59 105.89l457.92 0 -44.98 163.47 -477.89 0 43.99 -163.47 20.95 0zm2133.93 -106.4c0.54,-3.85 1.01,-8.05 1.42,-12.4 3.22,-34.43 0.56,-65.81 -8.01,-94.05 -8.47,-27.91 -22.75,-52.91 -42.88,-74.95l-0.13 -0.14c-20.05,-22.28 -43.72,-38.96 -71.01,-50.04 -27.53,-11.18 -59.03,-16.75 -94.53,-16.75l-606.93 0c-40.49,0 -79.92,7.11 -118.3,21.32 -38.71,14.33 -76.67,35.97 -113.87,64.9 -36.73,28.67 -66.91,60.36 -90.51,95.02 -23.49,34.51 -40.5,71.99 -51.01,112.36l-191.75 719.86c-2,8.36 -3.4,16.57 -4.74,24.49l-0.12 0.63 0.07 0.07c-0.94,5.61 -1.6,9.86 -1.97,12.67 -0.48,3.74 -0.96,8.01 -1.4,12.78 -3.19,34.19 -0.63,65.41 7.72,93.59 8.28,27.96 22.34,53.23 42.14,75.75 19.5,22.18 42.72,38.77 69.6,49.8 27.34,11.21 58.7,16.8 94.05,16.8l606.93 0c40.47,0 79.81,-7.11 118.05,-21.32 38.52,-14.32 76.2,-35.94 113.04,-64.84 37.59,-29.43 68.38,-61.62 92.3,-96.51 23.65,-34.49 40.67,-71.8 50.99,-111.88l0.02 -0.28 193.24 -720.28 0.06 0.01c1.56,-7.57 2.23,-10.53 2.87,-13.37l2.7 -11.91 -0.06 -0.07c0.88,-4.13 1.54,-7.86 2.01,-11.27zm-837.64 106.4l457.79 0 -158.8 589.9 -477.65 0 157.7 -589.9 20.96 0zm2133.88 -105.89c0.54,-3.86 1.01,-8.06 1.43,-12.57 3.22,-34.39 0.57,-65.72 -7.97,-93.97 -8.47,-28.03 -22.78,-53.18 -42.95,-75.44l-0.07 -0.07c-20.05,-22.28 -43.72,-38.96 -71.01,-50.04 -27.53,-11.18 -59.03,-16.75 -94.53,-16.75l-901.08 0 -348.4 1300.04 351.63 0 140.06 -516.18 479.12 0 -141.41 516.18 354.19 0 134.24 -493.51 1.93 -20.69c1.51,-16.19 -1.15,-33.96 -7.96,-53.28 -7.26,-20.62 -19.2,-42.86 -35.75,-66.69l-13.18 -18.97 19.66 -15.6c35.43,-28.12 63.36,-54.48 83.68,-79.12 18.91,-22.93 30.92,-44.04 35.98,-63.36l54.61 -202.43c1.28,-6.3 2.4,-11.23 3.48,-15.99l2.25 -10.13c0.88,-4.16 1.53,-7.92 2.03,-11.43zm-837.59 105.89l457.92 0 -44.98 163.47 -477.89 0 43.99 -163.47 20.95 0zm2107.69 0l96.45 -354.73 -1186.43 0 -95.57 354.73 416 0 -255.46 945.31 354.2 0 254.44 -945.31 416.37 0z"/>
  <path class="fil1" d="M3086.7 0l-1750.44 0c-181.36,0 -366.24,74.3 -518.01,194 -151.84,119.75 -270.4,284.83 -319.03,466.32l-499.22 1863.06 1923.35 0c181.36,0 366.24,-74.3 518.01,-194 81.63,-64.38 153.63,-141.87 210.33,-227.96l-824.88 0 -372.35 0 -920.06 0 329.95 -1231.32c33.04,-123.33 113.45,-235.38 216.35,-316.54 102.97,-81.21 228.62,-131.61 352.09,-131.61l1172.55 0c54.15,0 81.01,11.65 91.29,37.42 9.69,24.27 2.59,59.53 -10.69,109.09l-350.26 1308.88 421.34 0 448.99 -1677.34c7.88,-29.42 12.13,-56.79 12.13,-81.29 0,-28.76 -5.86,-53.39 -18.59,-72.48 -12.58,-18.86 -32.14,-32.64 -59.73,-40.03 -15.2,-4.07 -32.85,-6.21 -53.14,-6.21z"/>
  <path class="fil2" d="M1016.3 902.93l-259.58 974.46 421.34 0 346.78 -1300.47 -131.68 0c-186.81,0 -332.24,139.52 -376.86,326.01zm1003.59 77.38l-238.68 897.08 421.34 0 238.67 -897.08 -421.34 0zm-403.48 -403.39l-346.78 1300.47 421.34 0 346.78 -1300.47 -421.34 0z"/>
  <path class="fil3" d="M2284.2 573.28c101.64,0 184.03,82.4 184.03,184.03 0,101.64 -82.4,184.03 -184.03,184.03 -101.64,0 -184.03,-82.39 -184.03,-184.03 0,-101.64 82.39,-184.03 184.03,-184.03z"/>
 </g>
</svg>
